<?xml version="1.0" encoding="UTF-8"?>
<svg version="1.1" xmlns="http://www.w3.org/2000/svg" width="512" height="512">
<path d="M0 0 C0.7547634 -0.00581376 1.50952681 -0.01162753 2.28716183 -0.01761746 C4.81892275 -0.03222759 7.34971571 -0.01832799 9.88146973 -0.00457001 C11.71378831 -0.00917853 13.5461032 -0.01553112 15.37841034 -0.02347898 C20.41566974 -0.0402021 25.45262664 -0.03191234 30.48988724 -0.01953411 C35.92146115 -0.01049817 41.35298239 -0.02444612 46.7845459 -0.0354538 C57.42583641 -0.05325915 68.0670142 -0.04939004 78.70830917 -0.03780323 C87.35515011 -0.02877712 96.00195942 -0.02754135 104.64880371 -0.0318985 C105.87851882 -0.03251143 107.10823394 -0.03312436 108.37521315 -0.03375587 C110.87319756 -0.03503474 113.37118197 -0.0363316 115.86916637 -0.03764623 C138.63559834 -0.0487325 161.40197274 -0.03722711 184.16839492 -0.01627585 C204.95364553 0.00270675 225.73879811 0.00100824 246.52404785 -0.01811981 C269.87378691 -0.03953604 293.22347176 -0.04795925 316.5732193 -0.03567076 C319.06211852 -0.03439653 321.55101775 -0.03313905 324.03991699 -0.0318985 C325.26456775 -0.0312814 326.48921851 -0.03066429 327.7509799 -0.03002849 C336.38946058 -0.02657186 345.02790653 -0.03241068 353.66638184 -0.04181671 C364.19090511 -0.05302424 374.71530901 -0.05002285 385.23981857 -0.02869374 C390.61167726 -0.01816659 395.98333679 -0.0140899 401.35519409 -0.02729034 C406.27013164 -0.03918551 411.18468489 -0.03269916 416.09958744 -0.01138014 C417.88011831 -0.00690187 419.66068146 -0.00920769 421.44119167 -0.01888329 C423.85749929 -0.03100944 426.27248271 -0.01861171 428.6887207 0 C429.38357291 -0.00936466 430.07842512 -0.01872933 430.79433346 -0.02837777 C435.76603994 0.04840861 438.57019675 1.31201316 442.34436035 4.50336456 C446.09569507 8.93977697 446.92400651 12.49895809 446.84772491 18.15900421 C446.85353868 18.91376761 446.85935244 19.66853102 446.86534238 20.44616604 C446.8799525 22.97792696 446.8660529 25.50871992 446.85229492 28.04047394 C446.85690344 29.87279252 446.86325603 31.70510741 446.8712039 33.53741455 C446.88792702 38.57467395 446.87963726 43.61163085 446.86725903 48.64889145 C446.85822308 54.08046536 446.87217103 59.5119866 446.88317871 64.94355011 C446.90098407 75.58484062 446.89711495 86.22601842 446.88552815 96.86731339 C446.87650204 105.51415432 446.87526626 114.16096363 446.87962341 122.80780792 C446.88023635 124.03752304 446.88084928 125.26723815 446.88148078 126.53421736 C446.88275966 129.03220178 446.88405651 131.53018619 446.88537115 134.02817059 C446.89645741 156.79460255 446.88495203 179.56097696 446.86400076 202.32739913 C446.84501817 223.11264974 446.84671667 243.89780232 446.86584473 264.68305206 C446.88726095 288.03279112 446.89568416 311.38247597 446.88339567 334.73222351 C446.88212145 337.22112273 446.88086397 339.71002196 446.87962341 342.1989212 C446.87869776 344.03589734 446.87869776 344.03589734 446.87775341 345.90998411 C446.87429678 354.54846479 446.8801356 363.18691074 446.88954163 371.82538605 C446.90074915 382.34990932 446.89774776 392.87431322 446.87641865 403.39882278 C446.86589151 408.77068147 446.86181481 414.142341 446.87501526 419.5141983 C446.88691042 424.42913585 446.88042407 429.34368911 446.85910505 434.25859165 C446.85462678 436.03912252 446.85693261 437.81968567 446.8666082 439.60019588 C446.87873435 442.0165035 446.86633662 444.43148692 446.84772491 446.84772491 C446.85708958 447.54257712 446.86645424 448.23742933 446.87610269 448.95333767 C446.7993163 453.92504415 445.53571175 456.72920096 442.34436035 460.50336456 C437.90794794 464.25469929 434.34876682 465.08301072 428.6887207 465.00672913 C427.9339573 465.01254289 427.1791939 465.01835665 426.40155888 465.02434659 C423.86979796 465.03895672 421.33900499 465.02505711 418.80725098 465.01129913 C416.97493239 465.01590765 415.1426175 465.02226024 413.31031036 465.03020811 C408.27305096 465.04693123 403.23609406 465.03864147 398.19883347 465.02626324 C392.76725956 465.0172273 387.33573831 465.03117524 381.9041748 465.04218292 C371.26288429 465.05998828 360.6217065 465.05611916 349.98041153 465.04453236 C341.33357059 465.03550625 332.68676129 465.03427048 324.03991699 465.03862762 C322.81020188 465.03924056 321.58048676 465.03985349 320.31350756 465.04048499 C317.81552314 465.04176387 315.31753873 465.04306072 312.81955433 465.04437536 C290.05312236 465.05546162 267.28674796 465.04395624 244.52032578 465.02300497 C223.73507518 465.00402238 202.9499226 465.00572088 182.16467285 465.02484894 C158.8149338 465.04626516 135.46524895 465.05468838 112.1155014 465.04239988 C109.62660218 465.04112566 107.13770295 465.03986818 104.64880371 465.03862762 C103.42415295 465.03801052 102.19950219 465.03739342 100.9377408 465.03675762 C92.29926012 465.03330099 83.66081417 465.03913981 75.02233887 465.04854584 C64.4978156 465.05975337 53.97341169 465.05675198 43.44890213 465.03542286 C38.07704344 465.02489572 32.70538392 465.02081902 27.33352661 465.03401947 C22.41858907 465.04591463 17.50403581 465.03942829 12.58913326 465.01810926 C10.80860239 465.01363099 9.02803924 465.01593682 7.24752903 465.02561241 C4.83122141 465.03773856 2.416238 465.02534083 0 465.00672913 C-1.04227831 465.02077612 -1.04227831 465.02077612 -2.10561275 465.0351069 C-7.07731923 464.95832051 -9.88147605 463.69471597 -13.65563965 460.50336456 C-17.40697437 456.06695215 -18.2352858 452.50777104 -18.15900421 446.84772491 C-18.16772486 445.71557981 -18.16772486 445.71557981 -18.17662168 444.56056309 C-18.1912318 442.02880217 -18.1773322 439.4980092 -18.16357422 436.96625519 C-18.16818274 435.13393661 -18.17453533 433.30162172 -18.1824832 431.46931458 C-18.19920631 426.43205518 -18.19091656 421.39509827 -18.17853832 416.35783768 C-18.16950238 410.92626377 -18.18345033 405.49474252 -18.19445801 400.06317902 C-18.21226336 389.4218885 -18.20839425 378.78071071 -18.19680744 368.13941574 C-18.18778134 359.4925748 -18.18654556 350.8457655 -18.19090271 342.1989212 C-18.19151564 340.96920609 -18.19212857 339.73949098 -18.19276008 338.47251177 C-18.19403896 335.97452735 -18.19533581 333.47654294 -18.19665045 330.97855854 C-18.20773671 308.21212657 -18.19623133 285.44575217 -18.17528006 262.67932999 C-18.15629747 241.89407939 -18.15799597 221.10892681 -18.17712402 200.32367706 C-18.19854025 176.97393801 -18.20696346 153.62425316 -18.19467497 130.27450562 C-18.19340074 127.78560639 -18.19214326 125.29670716 -18.19090271 122.80780792 C-18.18997706 120.97083178 -18.18997706 120.97083178 -18.1890327 119.09674501 C-18.18557607 110.45826433 -18.1914149 101.81981838 -18.20082092 93.18134308 C-18.21202845 82.65681981 -18.20902706 72.1324159 -18.18769795 61.60790634 C-18.17717081 56.23604765 -18.17309411 50.86438813 -18.18629456 45.49253082 C-18.19818972 40.57759328 -18.19170337 35.66304002 -18.17038435 30.74813747 C-18.16590608 28.9676066 -18.1682119 27.18704345 -18.1778875 25.40653324 C-18.19001365 22.99022562 -18.17761592 20.57524221 -18.15900421 18.15900421 C-18.16836888 17.464152 -18.17773354 16.76929979 -18.18738198 16.05339146 C-18.1105956 11.08168498 -16.84699105 8.27752816 -13.65563965 4.50336456 C-9.21922724 0.75202984 -5.66004612 -0.07628159 0 0 Z " fill="#DEDEDE" transform="translate(41.6556396484375,23.49663543701172)"/>
<path d="M0 0 C126.72 0 253.44 0 384 0 C384 15.84 384 31.68 384 48 C339.945 48.495 339.945 48.495 295 49 C301.27 53.62 307.54 58.24 314 63 C316.784375 65.05347656 316.784375 65.05347656 319.625 67.1484375 C320.36580811 67.6947583 321.10661621 68.2410791 321.86987305 68.80395508 C323.36634987 69.90766033 324.86258503 71.01169329 326.35864258 72.1159668 C331.62911623 76.00238634 336.92638687 79.84745894 342.26171875 83.64453125 C342.83535156 84.09183594 343.40898437 84.53914063 344 85 C344 85.33 344 85.66 344 86 C340.08590735 86.42998603 336.17151793 86.85715029 332.25683594 87.28173828 C330.27262449 87.49753938 328.28865418 87.71555385 326.3046875 87.93359375 C325.05429687 88.06894531 323.80390625 88.20429688 322.515625 88.34375 C320.78747559 88.53227539 320.78747559 88.53227539 319.02441406 88.72460938 C316 89 316 89 312 89 C312.30292969 89.83249268 312.60585938 90.66498535 312.91796875 91.52270508 C314.03995954 94.61314241 315.15765021 97.70506471 316.27246094 100.7980957 C316.75577135 102.13628168 317.24078598 103.47385343 317.72753906 104.81079102 C318.42702345 106.73294556 319.12034277 108.65722804 319.8125 110.58203125 C320.44091797 112.31803589 320.44091797 112.31803589 321.08203125 114.08911133 C322 117 322 117 322 120 C342.46 120 362.92 120 384 120 C384 135.84 384 151.68 384 168 C257.28 168 130.56 168 0 168 C0 152.16 0 136.32 0 120 C95.04 120 190.08 120 288 120 C286.02 114.39 284.04 108.78 282 103 C282 102.34 282 101.68 282 101 C274.99256806 104.17317673 269.13529184 108.38940122 263 113 C256.2853717 118 256.2853717 118 254 118 C255.60749632 107.63238613 258.2914346 97.53076072 260.875 87.375 C261.7493032 83.92495949 262.6212788 80.47433632 263.4921875 77.0234375 C263.70421814 76.18544617 263.91624878 75.34745483 264.13470459 74.48406982 C265.75085047 68.06819633 267.28400889 61.63512869 268.7507019 55.18344116 C269.89475509 50.21048982 269.89475509 50.21048982 271 48 C181.57 48 92.14 48 0 48 C0 32.16 0 16.32 0 0 Z " fill="#31C192" transform="translate(64,168)"/>
<path d="M0 0 C126.72 0 253.44 0 384 0 C384 15.84 384 31.68 384 48 C257.28 48 130.56 48 0 48 C0 32.16 0 16.32 0 0 Z " fill="#31C292" transform="translate(64,408)"/>
<path d="M0 0 C95.37 0 190.74 0 289 0 C293.62 12.54 298.24 25.08 303 38 C306.98143133 38 309.17353924 37.38523048 312.859375 36.03125 C313.97441406 35.62519531 315.08945312 35.21914063 316.23828125 34.80078125 C317.97658203 34.15689453 317.97658203 34.15689453 319.75 33.5 C320.92433594 33.07074219 322.09867187 32.64148438 323.30859375 32.19921875 C326.20787311 31.13850679 329.10484401 30.07190458 332 29 C330.27405011 22.32307497 328.34240424 15.85283742 325.8125 9.4375 C323 2.25 323 2.25 323 0 C343.13 0 363.26 0 384 0 C384 15.84 384 31.68 384 48 C257.28 48 130.56 48 0 48 C0 32.16 0 16.32 0 0 Z " fill="#31C192" transform="translate(64,288)"/>
<path d="M0 0 C113.52 0 227.04 0 344 0 C344 5.28 344 10.56 344 16 C230.48 16 116.96 16 0 16 C0 10.72 0 5.44 0 0 Z " fill="#BEBEBE" transform="translate(144,48)"/>
<path d="M0 0 C2.64398662 1.26575751 5.04867577 2.63675287 7.44140625 4.328125 C8.42536377 5.02204346 8.42536377 5.02204346 9.42919922 5.72998047 C10.13318848 6.23158691 10.83717773 6.73319336 11.5625 7.25 C12.30773926 7.77867676 13.05297852 8.30735352 13.82080078 8.85205078 C21.80335778 14.53632218 29.68422709 20.35737419 37.55761719 26.19140625 C41.70030321 29.25908098 45.85031894 32.31679833 50 35.375 C50.79043701 35.95838135 51.58087402 36.5417627 52.39526367 37.14282227 C57.65338647 41.02047265 62.93872797 44.85624191 68.26171875 48.64453125 C68.83535156 49.09183594 69.40898437 49.53914063 70 50 C70 50.33 70 50.66 70 51 C66.08590735 51.42998603 62.17151793 51.85715029 58.25683594 52.28173828 C56.27262449 52.49753938 54.28865418 52.71555385 52.3046875 52.93359375 C51.05429687 53.06894531 49.80390625 53.20429688 48.515625 53.34375 C47.36352539 53.46943359 46.21142578 53.59511719 45.02441406 53.72460938 C42 54 42 54 38 54 C39.86454555 59.20669207 41.73025356 64.41296578 43.59692383 69.61889648 C44.22840869 71.38050773 44.85960546 73.14222229 45.49047852 74.90405273 C46.10345247 76.61578128 46.71684723 78.32735918 47.33065796 80.03878784 C47.9470527 81.75761494 48.56246754 83.47679376 49.1769104 85.19631958 C50.76406146 89.62316922 52.38426746 94.03386037 54.06201172 98.42724609 C54.39168442 99.29721725 54.72135712 100.16718842 55.0610199 101.06352234 C55.69185852 102.7229639 56.33025523 104.37955748 56.97718811 106.03279114 C59.11140954 111.66577137 59.11140954 111.66577137 58 115 C55.31616211 116.25854492 55.31616211 116.25854492 51.77734375 117.48046875 C51.15726944 117.69818436 50.53719513 117.91589996 49.89833069 118.14021301 C47.91504197 118.83372506 45.92655537 119.51072697 43.9375 120.1875 C42.59272495 120.65452341 41.24831841 121.12260939 39.90429688 121.59179688 C36.60705321 122.74022951 33.30495423 123.87392126 30 125 C27.83008704 122.83008704 27.28849147 121.47023383 26.26000977 118.6171875 C25.92949112 117.70864014 25.59897247 116.80009277 25.25843811 115.86401367 C24.9063176 114.87763916 24.55419708 113.89126465 24.19140625 112.875 C23.8240184 111.85833252 23.45663055 110.84166504 23.07810974 109.79418945 C22.29964902 107.63637742 21.52393343 105.4775734 20.75073242 103.31787109 C19.57647607 100.03902502 18.393503 96.763432 17.20898438 93.48828125 C16.45260196 91.38820914 15.69672681 89.28795425 14.94140625 87.1875 C14.59130997 86.21731934 14.24121368 85.24713867 13.88050842 84.24755859 C11.72545854 78.21673614 9.77544625 72.15333132 8 66 C0.99256806 69.17317673 -4.86470816 73.38940122 -11 78 C-17.7146283 83 -17.7146283 83 -20 83 C-18.54009075 73.6135407 -16.19781079 64.46792111 -13.86010742 55.27178955 C-12.72579839 50.8081497 -11.603941 46.34137726 -10.48046875 41.875 C-10.26196259 41.00759186 -10.04345642 40.14018372 -9.81832886 39.24649048 C-8.17450837 32.7149509 -6.56033852 26.17704924 -5 19.625 C-4.81719482 18.86268066 -4.63438965 18.10036133 -4.44604492 17.31494141 C-3.32165992 12.55938123 -2.35835332 7.78639361 -1.46484375 2.98193359 C-1 1 -1 1 0 0 Z " fill="#348DBF" transform="translate(338,203)"/>
<path d="M0 0 C58.08 0 116.16 0 176 0 C176 5.28 176 10.56 176 16 C117.92 16 59.84 16 0 16 C0 10.72 0 5.44 0 0 Z " fill="#BEBEBE" transform="translate(168,96)"/>
<path d="M0 0 C36.96 0 73.92 0 112 0 C112 5.28 112 10.56 112 16 C75.04 16 38.08 16 0 16 C0 10.72 0 5.44 0 0 Z " fill="#BEBEBE" transform="translate(64,368)"/>
<path d="M0 0 C36.96 0 73.92 0 112 0 C112 5.28 112 10.56 112 16 C75.04 16 38.08 16 0 16 C0 10.72 0 5.44 0 0 Z " fill="#BEBEBE" transform="translate(64,248)"/>
<path d="M0 0 C23.76 0 47.52 0 72 0 C72 5.28 72 10.56 72 16 C48.24 16 24.48 16 0 16 C0 10.72 0 5.44 0 0 Z " fill="#BEBEBE" transform="translate(64,128)"/>
<path d="M0 0 C5.28 0 10.56 0 16 0 C16 5.28 16 10.56 16 16 C10.72 16 5.44 16 0 16 C0 10.72 0 5.44 0 0 Z " fill="#BEBEBE" transform="translate(112,48)"/>
<path d="M0 0 C5.28 0 10.56 0 16 0 C16 5.28 16 10.56 16 16 C10.72 16 5.44 16 0 16 C0 10.72 0 5.44 0 0 Z " fill="#BEBEBE" transform="translate(80,48)"/>
<path d="M0 0 C5.28 0 10.56 0 16 0 C16 5.28 16 10.56 16 16 C10.72 16 5.44 16 0 16 C0 10.72 0 5.44 0 0 Z " fill="#BEBEBE" transform="translate(48,48)"/>
</svg>
